
<svg width="300" height="200" viewBox="0 0 300 200" xmlns="http://www.w3.org/2000/svg">
  <defs>
    <pattern id="courtPattern" patternUnits="userSpaceOnUse" width="10" height="10">
      <rect width="10" height="10" fill="#2E7D32"/>
      <rect width="5" height="5" fill="#388E3C"/>
    </pattern>
  </defs>
  
  <!-- Court Background -->
  <rect x="20" y="20" width="260" height="160" fill="url(#courtPattern)" stroke="#fff" stroke-width="3"/>
  
  <!-- Center Line -->
  <line x1="150" y1="20" x2="150" y2="180" stroke="white" stroke-width="2"/>
  
  <!-- Service Lines -->
  <line x1="20" y1="80" x2="280" y2="80" stroke="white" stroke-width="2"/>
  <line x1="20" y1="120" x2="280" y2="120" stroke="white" stroke-width="2"/>
  
  <!-- Service Boxes -->
  <line x1="150" y1="80" x2="150" y2="120" stroke="white" stroke-width="2"/>
  
  <!-- Net -->
  <rect x="145" y="20" width="10" height="160" fill="#333" opacity="0.8"/>
  <rect x="140" y="15" width="20" height="10" fill="#654321"/>
  <rect x="140" y="175" width="20" height="10" fill="#654321"/>
  
  <!-- Net Pattern -->
  <g stroke="white" stroke-width="0.5" opacity="0.6">
    <line x1="145" y1="25" x2="155" y2="35"/>
    <line x1="145" y1="35" x2="155" y2="45"/>
    <line x1="145" y1="45" x2="155" y2="55"/>
    <line x1="145" y1="55" x2="155" y2="65"/>
    <line x1="145" y1="65" x2="155" y2="75"/>
    <line x1="145" y1="85" x2="155" y2="95"/>
    <line x1="145" y1="95" x2="155" y2="105"/>
    <line x1="145" y1="105" x2="155" y2="115"/>
    <line x1="145" y1="125" x2="155" y2="135"/>
    <line x1="145" y1="135" x2="155" y2="145"/>
    <line x1="145" y1="145" x2="155" y2="155"/>
    <line x1="145" y1="155" x2="155" y2="165"/>
    <line x1="145" y1="165" x2="155" y2="175"/>
  </g>
</svg>
